# xmcd
#
# Track frame offsets: 
#        150
#        14640
#        28817
#        44732
#        63106
#        77530
#        97313
#        116179
#        133192
#        153011
#        166749
#
# Disc length: 2681 seconds
#
# Revision: 0
# Processed by: cddbd v1.5.2PL0 Copyright (c) Steve Scherf et al.
# Submitted via: ExactAudioCopy v1.2
#
DISCID=910a770b
DTITLE=Martin Harley and Daniel Kimbo - Static In the Wires
DYEAR=2017
DGENRE=Blues
TTITLE0=One Horse Town
TTITLE1=Feet Don't Fail Me (Feat. Jerry Douglas)
TTITLE2=Postcard From Hamburg
TTITLE3=Gold
TTITLE4=Sweet and Low
TTITLE5=My Lovers Arms
TTITLE6=Dancing On The Rocks
TTITLE7=Trouble
TTITLE8=This Little Bird
TTITLE9=I Need A Friend
TTITLE10=Mean Old City Part 2
EXTD=
EXTT0=
EXTT1=
EXTT2=
EXTT3=
EXTT4=
EXTT5=
EXTT6=
EXTT7=
EXTT8=
EXTT9=
EXTT10=
PLAYORDER=
